<?xml version="1.0" encoding="UTF-8" standalone="no"?>
<!-- Created with Inkscape (http://www.inkscape.org/) -->

<svg
   xmlns:dc="http://purl.org/dc/elements/1.1/"
   xmlns:cc="http://creativecommons.org/ns#"
   xmlns:rdf="http://www.w3.org/1999/02/22-rdf-syntax-ns#"
   xmlns:svg="http://www.w3.org/2000/svg"
   xmlns="http://www.w3.org/2000/svg"
   xmlns:sodipodi="http://sodipodi.sourceforge.net/DTD/sodipodi-0.dtd"
   xmlns:inkscape="http://www.inkscape.org/namespaces/inkscape"
   width="355.80099"
   height="355.34952"
   id="svg2"
   version="1.1"
   inkscape:version="0.48.1 r9760"
   sodipodi:docname="joystick.svg"
   inkscape:export-filename="/home/michal/Projects/freeciv/data/user/joystick.png"
   inkscape:export-xdpi="90"
   inkscape:export-ydpi="90">
  <defs
     id="defs4" />
  <sodipodi:namedview
     id="base"
     pagecolor="#ffffff"
     bordercolor="#666666"
     borderopacity="1.0"
     inkscape:pageopacity="0.0"
     inkscape:pageshadow="2"
     inkscape:zoom="0.7"
     inkscape:cx="23.103481"
     inkscape:cy="171.00954"
     inkscape:document-units="px"
     inkscape:current-layer="layer1"
     showgrid="false"
     fit-margin-top="0"
     fit-margin-left="0"
     fit-margin-right="0"
     fit-margin-bottom="0"
     inkscape:window-width="1223"
     inkscape:window-height="544"
     inkscape:window-x="411"
     inkscape:window-y="297"
     inkscape:window-maximized="0" />
  <metadata
     id="metadata7">
    <rdf:RDF>
      <cc:Work
         rdf:about="">
        <dc:format>image/svg+xml</dc:format>
        <dc:type
           rdf:resource="http://purl.org/dc/dcmitype/StillImage" />
        <dc:title />
      </cc:Work>
    </rdf:RDF>
  </metadata>
  <g
     inkscape:label="Layer 1"
     inkscape:groupmode="layer"
     id="layer1"
     transform="translate(-165.82382,-421.63697)">
    <g
       id="g3104"
       transform="matrix(0.92712267,0.374758,-0.374758,0.92712267,249.40339,-85.125026)"
       style="opacity:0.80313199">
      <path
         inkscape:connector-curvature="0"
         id="path2985"
         d="m 339.88839,421.95089 c -14.79312,0.67909 -29.50588,2.97723 -43.80002,6.84801 -9.79435,2.5976 -19.35385,6.06024 -28.52999,10.36046 -10.90627,5.07557 -21.24423,11.36869 -30.83103,18.6313 -15.52083,11.7118 -29.06903,26.02356 -39.90783,42.1664 -9.94318,14.66817 -17.20216,31.05706 -22.18558,48.03351 -4.03437,14.09056 -6.73704,28.5961 -7.58885,43.23846 -0.92176,15.92546 0.26722,31.99942 3.89024,47.54613 5.17138,22.74515 14.9124,44.43664 28.50308,63.39575 9.92196,13.96492 21.94916,26.4113 35.43377,36.96545 19.32065,15.04976 41.76259,26.1458 65.55059,32.0316 11.99765,2.91063 24.33707,4.31791 36.67803,4.35704 13.6593,0.12233 27.32158,-1.08955 40.78759,-3.35536 15.69015,-2.68987 31.16484,-7.18612 45.4375,-14.3125 9.43799,-4.6969 18.40411,-10.32635 26.87742,-16.59034 14.52506,-10.87186 27.35397,-24.04074 37.61505,-39.01571 9.80654,-14.11161 17.55589,-29.61874 23.33645,-45.78941 6.50395,-18.18352 10.0041,-37.44499 10.15218,-56.76188 0.10194,-15.44628 -1.80668,-30.91717 -5.76521,-45.85153 -4.28538,-16.25226 -10.935,-31.87315 -19.60053,-46.27137 -10.36393,-17.22832 -23.66383,-32.68691 -39.21264,-45.43864 -19.19279,-15.77537 -41.69618,-27.53955 -65.67605,-34.07796 -16.62291,-4.58396 -33.92556,-6.70868 -51.16417,-6.10941 z"
         style="color:#000000;fill:#ffdd55;fill-opacity:1;fill-rule:nonzero;stroke:#000000;stroke-width:0.83337139999999998px;stroke-linecap:butt;stroke-linejoin:miter;stroke-miterlimit:4;stroke-opacity:1;stroke-dashoffset:0;marker:none;visibility:visible;display:inline;overflow:visible;enable-background:accumulate" />
      <path
         inkscape:connector-curvature="0"
         id="path2992"
         d="m 165.71429,602.36218 355.71428,0"
         style="fill:none;stroke:#000000;stroke-width:1px;stroke-linecap:butt;stroke-linejoin:miter;stroke-opacity:1" />
      <path
         inkscape:connector-curvature="0"
         id="path2994"
         d="m 342.14286,775.21933 0,-352.85715"
         style="fill:none;stroke:#000000;stroke-width:1px;stroke-linecap:butt;stroke-linejoin:miter;stroke-opacity:1" />
      <path
         inkscape:connector-curvature="0"
         id="path2992-2"
         d="M 218.52172,725.98331 470.0497,474.45533"
         style="fill:none;stroke:#000000;stroke-width:1px;stroke-linecap:butt;stroke-linejoin:miter;stroke-opacity:1" />
      <path
         inkscape:connector-curvature="0"
         id="path2992-2-5"
         d="M 215.66458,475.8839 467.19256,727.41188"
         style="fill:none;stroke:#000000;stroke-width:1px;stroke-linecap:butt;stroke-linejoin:miter;stroke-opacity:1" />
    </g>
  </g>
</svg>
